<svg width="87" height="87" viewBox="0 0 87 87" fill="none" xmlns="http://www.w3.org/2000/svg">
<path fill-rule="evenodd" clip-rule="evenodd" d="M6.21495 80.7857V18.643C6.21495 17.5151 6.82715 16.4742 7.81222 15.9274L35.7795 0.391711C36.7428 -0.142717 37.9174 -0.130288 38.8652 0.428997C39.813 0.988281 40.3972 2.00742 40.3972 3.10735V32.5785L41.6992 31.6495C42.7775 30.8789 44.2318 30.8789 45.3101 31.6495L46.6121 32.5785V3.10735C46.6121 2.00742 47.1933 0.988281 48.1441 0.428997C49.0919 -0.130288 50.2665 -0.142717 51.2299 0.391711L79.1971 15.9274C80.1822 16.4742 80.7943 17.5151 80.7943 18.643V80.7857H83.8925C85.6079 80.7857 87 82.1777 87 83.8929C87 85.608 85.6079 87 83.8925 87H3.10747C1.39215 87 0 85.608 0 83.8929C0 82.1777 1.39215 80.7857 3.10747 80.7857H6.21495ZM74.5794 80.7857V20.47L52.8271 8.38948V37.0186L67.0624 47.1852C67.8797 47.7693 68.3644 48.7108 68.3644 49.7144V80.7857H74.5794ZM34.1822 37.0186V8.38948L12.4299 20.47V80.7857H18.6448V49.7144C18.6448 48.7108 19.1296 47.7693 19.9469 47.1852L34.1822 37.0186ZM62.1495 80.7857V51.3146L43.5046 37.9974L24.8598 51.3146V80.7857H62.1495ZM34.1822 68.3572H37.2897C39.005 68.3572 40.3972 66.9652 40.3972 65.2501C40.3972 63.5349 39.005 62.1429 37.2897 62.1429H34.1822C32.4669 62.1429 31.0747 63.5349 31.0747 65.2501C31.0747 66.9652 32.4669 68.3572 34.1822 68.3572ZM49.7196 68.3572H52.8271C54.5424 68.3572 55.9346 66.9652 55.9346 65.2501C55.9346 63.5349 54.5424 62.1429 52.8271 62.1429H49.7196C48.0043 62.1429 46.6121 63.5349 46.6121 65.2501C46.6121 66.9652 48.0043 68.3572 49.7196 68.3572ZM34.1822 55.9286H37.2897C39.005 55.9286 40.3972 54.5367 40.3972 52.8215C40.3972 51.1064 39.005 49.7144 37.2897 49.7144H34.1822C32.4669 49.7144 31.0747 51.1064 31.0747 52.8215C31.0747 54.5367 32.4669 55.9286 34.1822 55.9286ZM49.7196 55.9286H52.8271C54.5424 55.9286 55.9346 54.5367 55.9346 52.8215C55.9346 51.1064 54.5424 49.7144 52.8271 49.7144H49.7196C48.0043 49.7144 46.6121 51.1064 46.6121 52.8215C46.6121 54.5367 48.0043 55.9286 49.7196 55.9286Z" fill="#4CD964"/>
</svg>
