<svg xmlns="http://www.w3.org/2000/svg" xmlns:xlink="http://www.w3.org/1999/xlink" width="128" zoomAndPan="magnify" viewBox="0 0 96 95.999999" height="128" preserveAspectRatio="xMidYMid meet" version="1.0"><defs><clipPath id="1f6b0bd3a9"><path d="M 1 0 L 74.53125 0 L 74.53125 96 L 1 96 Z M 1 0 " clip-rule="nonzero"/></clipPath><clipPath id="7b2cc8c020"><path d="M 40.339844 20.886719 L 51.742188 20.886719 L 51.742188 47.980469 L 40.339844 47.980469 Z M 40.339844 20.886719 " clip-rule="nonzero"/></clipPath><clipPath id="cb3217c0a8"><path d="M 23.9375 20.886719 L 35.546875 20.886719 L 35.546875 47.980469 L 23.9375 47.980469 Z M 23.9375 20.886719 " clip-rule="nonzero"/></clipPath><clipPath id="c66a2c243c"><path d="M 1.234375 0.886719 L 12.546875 0.886719 L 12.546875 27.980469 L 1.234375 27.980469 Z M 1.234375 0.886719 " clip-rule="nonzero"/></clipPath><clipPath id="36f9151380"><rect x="0" width="13" y="0" height="28"/></clipPath><clipPath id="9c604ffb77"><rect x="0" width="76" y="0" height="96"/></clipPath></defs><g transform="matrix(1, 0, 0, 1, 10, -0.000000000000008101)"><g clip-path="url(#9c604ffb77)"><g clip-path="url(#1f6b0bd3a9)"><path fill="#366438" d="M 37.992188 57.234375 C 25.46875 57.234375 15.316406 47.085938 15.316406 34.558594 C 15.316406 22.035156 25.46875 11.882812 37.992188 11.882812 C 50.515625 11.882812 60.667969 22.035156 60.667969 34.558594 C 60.667969 47.085938 50.515625 57.234375 37.992188 57.234375 Z M 37.992188 0.0273438 C 17.5625 0.0273438 1.003906 16.585938 1.003906 37.011719 C 1.003906 57.441406 37.992188 95.988281 37.992188 95.988281 C 37.992188 95.988281 74.976562 57.441406 74.976562 37.011719 C 74.976562 16.585938 58.417969 0.0273438 37.992188 0.0273438 " fill-opacity="1" fill-rule="nonzero"/></g><g clip-path="url(#7b2cc8c020)"><path fill="#366438" d="M 51.875 33.847656 L 51.875 107.425781 L 41.460938 97.15625 C 40.722656 96.433594 40.308594 95.441406 40.308594 94.410156 L 40.308594 20.898438 L 50.714844 31.089844 C 51.457031 31.816406 51.875 32.8125 51.875 33.847656 Z M 51.875 33.847656 " fill-opacity="1" fill-rule="nonzero"/><path fill="#366438" d="M 52.050781 33.847656 L 52.050781 107.84375 L 41.335938 97.28125 C 40.570312 96.527344 40.132812 95.480469 40.132812 94.410156 L 40.132812 20.480469 L 50.839844 30.964844 C 51.609375 31.71875 52.050781 32.769531 52.050781 33.847656 Z M 51.699219 107.007812 L 51.699219 33.847656 C 51.699219 32.863281 51.296875 31.90625 50.59375 31.214844 L 40.484375 21.316406 L 40.484375 94.410156 C 40.484375 95.390625 40.882812 96.34375 41.582031 97.03125 Z M 51.699219 107.007812 " fill-opacity="1" fill-rule="nonzero"/></g><g clip-path="url(#cb3217c0a8)"><g transform="matrix(1, 0, 0, 1, 23, 20)"><g clip-path="url(#36f9151380)"><g clip-path="url(#c66a2c243c)"><path fill="#366438" d="M 1.101562 13.847656 L 1.101562 87.425781 L 11.519531 77.15625 C 12.253906 76.433594 12.667969 75.441406 12.667969 74.410156 L 12.667969 0.898438 L 2.261719 11.089844 C 1.519531 11.816406 1.101562 12.8125 1.101562 13.847656 Z M 1.101562 13.847656 " fill-opacity="1" fill-rule="nonzero"/><path fill="#366438" d="M 0.925781 13.847656 L 0.925781 87.84375 L 11.640625 77.28125 C 12.40625 76.527344 12.84375 75.480469 12.84375 74.410156 L 12.84375 0.480469 L 2.136719 10.964844 C 1.367188 11.71875 0.925781 12.769531 0.925781 13.847656 Z M 1.277344 87.007812 L 1.277344 13.847656 C 1.277344 12.863281 1.679688 11.90625 2.382812 11.214844 L 12.492188 1.316406 L 12.492188 74.410156 C 12.492188 75.390625 12.09375 76.34375 11.394531 77.03125 Z M 1.277344 87.007812 " fill-opacity="1" fill-rule="nonzero"/></g></g></g></g></g></g></svg>